<?xml version="1.0" encoding="UTF-8" standalone="no"?>
<!-- Generator: Adobe Illustrator 17.0.0, SVG Export Plug-In . SVG Version: 6.00 Build 0)  -->

<svg
   xmlns:dc="http://purl.org/dc/elements/1.1/"
   xmlns:cc="http://creativecommons.org/ns#"
   xmlns:rdf="http://www.w3.org/1999/02/22-rdf-syntax-ns#"
   xmlns:svg="http://www.w3.org/2000/svg"
   xmlns="http://www.w3.org/2000/svg"
   xmlns:sodipodi="http://sodipodi.sourceforge.net/DTD/sodipodi-0.dtd"
   xmlns:inkscape="http://www.inkscape.org/namespaces/inkscape"
   version="1.1"
   id="Layer_1"
   x="0px"
   y="0px"
   width="1000px"
   height="1000px"
   viewBox="0 0 1000 1000"
   enable-background="new 0 0 1000 1000"
   xml:space="preserve"
   inkscape:version="0.91 r13725"
   sodipodi:docname="222.svg"
   inkscape:export-filename="/home/maxicus/Projects/wow-website/logo/222.svg.png-2"
   inkscape:export-xdpi="61.93"
   inkscape:export-ydpi="61.93"><metadata
     id="metadata5138"><rdf:RDF><cc:Work
         rdf:about=""><dc:format>image/svg+xml</dc:format><dc:type
           rdf:resource="http://purl.org/dc/dcmitype/StillImage" /></cc:Work></rdf:RDF></metadata><defs
     id="defs5136" /><sodipodi:namedview
     pagecolor="#ffffff"
     bordercolor="#666666"
     borderopacity="1"
     objecttolerance="10"
     gridtolerance="10"
     guidetolerance="10"
     inkscape:pageopacity="0"
     inkscape:pageshadow="2"
     inkscape:window-width="1197"
     inkscape:window-height="900"
     id="namedview5134"
     showgrid="false"
     inkscape:zoom="0.472"
     inkscape:cx="297.66949"
     inkscape:cy="758.97589"
     inkscape:window-x="65"
     inkscape:window-y="24"
     inkscape:window-maximized="0"
     inkscape:current-layer="Layer_1" /><g
     id="g5130"
     transform="matrix(0.5480226,0,0,0.5480226,-48.022602,-48.022598)"><path
       d="m 1300,900 0,700 q 0,41 -29.5,70.5 -29.5,29.5 -70.5,29.5 l -167,0 -133,200 -400,0 -133,-200 -167,0 q -41,0 -70.5,-29.5 Q 100,1641 100,1600 l 0,-700 q 0,-41 29.5,-70.5 Q 159,800 200,800 l 1000,0 q 41,0 70.5,29.5 29.5,29.5 29.5,70.5 z m -600,650 q 104,0 177,-73 73,-73 73,-177 0,-104 -73,-177 -73,-73 -177,-73 -104,0 -177,73 -73,73 -73,177 0,104 73,177 73,73 177,73 z m 700,-150 500,0 0,-1050 q 0,-104 -73,-177 -73,-73 -177,-73 -104,0 -177,73 -73,73 -73,177 0,104 73,177 73,73 177,73 23,0 50,-5 l 0,505 -300,0 0,300 z m -400,-805 0,105 200,0 0,-350 q 0,-104 -73,-177 -73,-73 -177,-73 -104,0 -177,73 -73,73 -73,177 0,104 73,177 73,73 177,73 23,0 50,-5 z"
       id="path5132"
       inkscape:connector-curvature="0"
       style="fill:#78878f;fill-opacity:0.38364784" /></g><g
     id="g5120"
     transform="matrix(3.2037716,0,0,3.2037716,-1107.5036,-884.67952)"><path
       d="m 387.546,361.034 53.533,0.312 -39.424,94.869 -27.529,-63.422 c 0,0 -9.409,-18.188 -5.326,-25.953 3.487,-6.63 18.746,-5.806 18.746,-5.806 z"
       id="path5122"
       inkscape:connector-curvature="0"
       style="fill:#78878f" /><path
       d="m 450.039,361.346 54.611,0 -57.4,141.455 c 0.323,-1.404 -2.711,9.702 -11.877,9.569 -8.75,-0.127 -13.421,-9.569 -13.421,-9.569 l -14.827,-34.116 42.914,-107.339 z"
       id="path5124"
       inkscape:connector-curvature="0"
       style="fill:#25a5de" /><path
       d="m 521.309,479.041 0.405,0 20.076,-50.265 -0.085,0 5.378,-13.254 21.775,-54.52 -39.749,0 0,0.345 -14.653,0 -42.915,107.34 14.827,34.116 c 0,0 4.672,9.442 13.421,9.569 9.166,0.133 12.2,-10.973 11.877,-9.569 l 9.643,-23.762 z"
       id="path5126"
       inkscape:connector-curvature="0"
       style="fill:#78878f" /><path
       d="m 578.647,361.261 -19.875,49.763 14.436,0 c 4.969,0 8.997,4.028 8.997,8.997 0,4.969 -4.028,8.755 -8.997,8.755 -0.705,0 -1.388,0.153 -2.046,0 l -19.48,0 -20.076,50.265 39.556,0 0,-0.072 c 0.682,0.024 1.343,0.072 2.046,0.072 32.596,0 59.02,-26.424 59.02,-59.02 -10e-4,-30.76 -23.537,-56.013 -53.581,-58.76 z"
       id="path5128"
       inkscape:connector-curvature="0"
       style="fill:#25a5de" /></g></svg>